<svg xmlns="http://www.w3.org/2000/svg" xmlns:xlink="http://www.w3.org/1999/xlink" viewBox="0 0 272.9 272.9"><defs><style>.cls-1{fill:url(#未命名的渐变_12);}.cls-2{fill:#fff;}</style><linearGradient id="未命名的渐变_12" y1="136.45" x2="272.9" y2="136.45" gradientUnits="userSpaceOnUse"><stop offset="0" stop-color="#1c9a8f"/><stop offset="1" stop-color="#006055"/></linearGradient></defs><title>资源 3</title><g id="图层_2" data-name="图层 2"><g id="图层_1-2" data-name="图层 1"><circle class="cls-1" cx="136.45" cy="136.45" r="136.45"/><path class="cls-2" d="M139.28,64.84H71.08A10.14,10.14,0,0,0,60.94,75V167.8a10.14,10.14,0,0,0,10.14,10.14h20.3v21.4a8.71,8.71,0,0,0,8.71,8.71h40.26A71.6,71.6,0,0,0,212,135.5C211.44,96.15,178.63,64.84,139.28,64.84ZM137.1,186.05H113.2V117.4H138a18.47,18.47,0,0,1,0,36.93H114.3l9.35,22.73h16.11a40.89,40.89,0,1,0,0-81.78H97.33a6,6,0,0,0-6,6v54.34H83.07L83,86.41H137.1a49.83,49.83,0,0,1,49.82,49.82h0A49.83,49.83,0,0,1,137.1,186.05Z"/></g></g></svg>